<?xml version="1.0" encoding="UTF-8" standalone="no"?>
<svg xmlns:dc="http://purl.org/dc/elements/1.1/" xmlns:cc="http://creativecommons.org/ns#" xmlns:rdf="http://www.w3.org/1999/02/22-rdf-syntax-ns#" xmlns:svg="http://www.w3.org/2000/svg" xmlns="http://www.w3.org/2000/svg" xmlns:xlink="http://www.w3.org/1999/xlink" xmlns:sodipodi="http://sodipodi.sourceforge.net/DTD/sodipodi-0.dtd" xmlns:inkscape="http://www.inkscape.org/namespaces/inkscape" sodipodi:docname="Cyan-Bot.svg" inkscape:version="1.0 (4035a4fb49, 2020-05-01)" version="1.1" id="svg5337" viewBox="0 0 177.16535 177.16535" height="50mm" width="50mm">
  <defs id="defs5339">
    <filter style="color-interpolation-filters:sRGB" id="filter4682" x="-0.035999998" width="1.072" y="-0.035999998" height="1.072">
      <feGaussianBlur stdDeviation="0.6626" id="feGaussianBlur4684"/>
    </filter>
    <linearGradient y2="39.68" x2="34.529999" y1="12.28" x1="14.46" gradientTransform="matrix(1.242,0,0,1.242,-4.714,-6.019)" gradientUnits="userSpaceOnUse" id="linearGradient4658" xlink:href="#linearGradient3264"/>
    <linearGradient id="linearGradient3264">
      <stop style="stop-color:#c9c9c9;stop-opacity:1;" offset="0" id="stop3266"/>
      <stop id="stop3276" offset="0.25" style="stop-color:#f8f8f8;stop-opacity:1;"/>
      <stop id="stop3272" offset="0.5" style="stop-color:#e2e2e2;stop-opacity:1;"/>
      <stop style="stop-color:#b0b0b0;stop-opacity:1;" offset="0.75" id="stop3274"/>
      <stop style="stop-color:#c9c9c9;stop-opacity:1;" offset="1" id="stop3268"/>
    </linearGradient>
    <filter style="color-interpolation-filters:sRGB" id="filter4707" x="-0.035950001" width="1.072" y="-0.036049999" height="1.072">
      <feGaussianBlur stdDeviation="0.639" id="feGaussianBlur4709"/>
    </filter>
    <linearGradient xlink:href="#linearGradient3264" id="linearGradient3281" gradientUnits="userSpaceOnUse" x1="14.46" y1="12.28" x2="34.529999" y2="39.68" gradientTransform="matrix(0.8585,-0.3556,0.3557,0.8588,23.28,38.3)"/>
  </defs>
  <sodipodi:namedview inkscape:document-rotation="0" inkscape:window-maximized="1" inkscape:window-y="-8" inkscape:window-x="-8" inkscape:window-height="1017" inkscape:window-width="1920" showgrid="false" inkscape:current-layer="g6150" inkscape:document-units="px" inkscape:cy="56.336109" inkscape:cx="-50.245129" inkscape:zoom="2.8" inkscape:pageshadow="2" inkscape:pageopacity="0.0" borderopacity="1.0" bordercolor="#666666" pagecolor="#ffffff" id="base"/>
  <metadata id="metadata5342">
    <rdf:RDF>
      <cc:Work rdf:about="">
        <dc:format>image/svg+xml</dc:format>
        <dc:type rdf:resource="http://purl.org/dc/dcmitype/StillImage"/>
        <dc:title/>
      </cc:Work>
    </rdf:RDF>
  </metadata>
  <g transform="translate(0,-875.19685)" id="layer1" inkscape:groupmode="layer" inkscape:label="Calque 1">
    <g transform="matrix(1.5213953,0,0,1.5213953,418.66971,-2009.2082)" id="g12466">
      <g transform="translate(198.74452,-0.08084291)" id="g12612">
        <g id="g12490" transform="translate(-5.9215698,0)">
          <g transform="translate(180.53839,8.4795538)" id="g12512">
            <g transform="matrix(0.98325622,0,0,0.97385195,-197.05762,1339.7365)" id="g6150">
              <circle id="path3013-7-6-4-0-5-4" style="fill:#57cab7;fill-opacity:1;fill-rule:nonzero;stroke:none" cx="-400.22241" cy="625.10132" r="54.226532"/>
              <g style="fill:#000000" id="g4716" transform="matrix(1.0096461,0,0,1.019396,-437.42971,560.79126)">
                <g inkscape:transform-center-y="-15.00369" inkscape:transform-center-x="-103.22021" style="fill:#000000" id="g4712" transform="translate(-0.38161673,-2.208878)">
                  <path id="path3243" d="m 44.12,36.02 0,0 0.93,4.45 c -1.11,0.79 -2.08,1.75 -2.85,2.83 l -4.4,-1.04 c -0.63,1.09 -1.12,2.27 -1.48,3.47 l 3.78,2.46 c -0.26,1.39 -0.28,2.86 0,4.29 l 0,0 -3.83,2.37 c 0.18,0.65 0.41,1.3 0.67,1.93 0.22,0.52 0.44,1.02 0.7,1.51 l 4.41,-0.97 c 0.88,1.31 1.99,2.41 3.25,3.26 l -1.06,4.37 c 1.06,0.57 2.19,1.03 3.36,1.36 l 2.47,-3.81 c 1.52,0.28 3.1,0.26 4.67,-0.1 l 2.34,3.82 c 0.49,-0.12 0.96,-0.32 1.43,-0.52 0.67,-0.27 1.3,-0.54 1.9,-0.91 L 59.46,60.3 c 1.25,-0.92 2.3,-2.06 3.11,-3.33 l 4.32,1.04 c 0.56,-1.1 1,-2.27 1.3,-3.45 l -3.87,-2.5 c 0.19,-1.41 0.13,-2.84 -0.2,-4.27 L 67.9,45.47 C 67.79,45.01 67.62,44.6 67.44,44.16 67.13,43.41 66.73,42.71 66.32,42.02 l -4.45,0.96 C 61,41.89 60.01,41 58.91,40.27 l 1.06,-4.36 C 58.83,35.3 57.61,34.8 56.36,34.47 l -2.52,3.88 c -1.26,-0.18 -2.54,-0.19 -3.83,0 l -2.35,-3.84 c -0.61,0.18 -1.23,0.38 -1.83,0.64 -0.62,0.23 -1.18,0.57 -1.71,0.87 z m 5.82,9.77 c 0.1,0 0.15,-0.1 0.24,-0.1 2.55,-1.06 5.5,0.17 6.56,2.72 1.06,2.56 -0.17,5.49 -2.73,6.55 -2.55,1.06 -5.48,-0.16 -6.54,-2.71 -1.02,-2.48 0.1,-5.32 2.47,-6.46 z" style="color:#000000;display:inline;overflow:visible;visibility:visible;opacity:1;fill:#000000;fill-opacity:1;fill-rule:nonzero;stroke:none;stroke-width:0.99992961;stroke-linecap:butt;stroke-linejoin:miter;stroke-miterlimit:4;stroke-dasharray:none;stroke-dashoffset:0;stroke-opacity:1;marker:none;marker-start:none;marker-mid:none;marker-end:none" inkscape:connector-curvature="0"/>
                </g>
              </g>
              <g style="fill:#000000;fill-opacity:1;stroke:none" id="g4723" transform="matrix(1.0096461,0,0,1.019396,-435.7585,606.83179)">
                <g style="fill:#000000;fill-opacity:1;stroke:none" transform="translate(30.831654,2.5203904)" id="g4741">
                  <path id="path3243-73" d="m -8.3625621,5.4424148 c -0.47,0.03 -0.92,0.104 -1.38,0.156 l 0,0 -1.1199999,5.9689992 c -1.78,0.406 -3.46,1.095 -4.97,2.031 l -4.9,-3.530999 c -1.328,1.028999 -2.534,2.229999 -3.596,3.530999 l 3.406,4.965 c -1.034,1.58 -1.811,3.39 -2.249,5.28 0,0 0,0 0,0 l -5.937,0.97 c -0.109,0.89 -0.157,1.81 -0.157,2.72 0,0.75 0.02,1.49 0.09,2.22 l 5.938,1.06 c 0.422,2.07 1.224,3.99 2.345,5.69 l -3.533,4.85 c 1.012,1.25 2.179,2.39 3.443,3.4 l 5,-3.44 c 1.74,1.12 3.69,1.9 5.81,2.29 l 0.9299999,5.9 c 0.67,0.1 1.35,0.1 2.04,0.1 0.96,0 1.88,0 2.81,-0.15 l 1.12,-6.03 c 2.01,-0.5 3.90000049,-1.37 5.5400005,-2.53 l 4.81,3.5 c 1.25,-1.07 2.39,-2.29 3.3699996,-3.6 l -3.4999996,-5.06 c 0.95,-1.64 1.61,-3.44 1.94,-5.38 l 5.9099996,-0.93 c 0.1,-0.62 0.1,-1.22 0.1,-1.85 0,-1.09 -0.13,-2.16 -0.28,-3.22 l -5.9999996,-1.09 c -0.51,-1.78 -1.28,-3.4 -2.26,-4.85 l 3.53,-4.846 c -1.09,-1.339 -2.34,-2.575 -3.72,-3.6249992 l -5.09,3.4999992 c -1.47000001,-0.866 -3.0400005,-1.53 -4.7500005,-1.907 l -0.94,-5.9369992 c -0.85,-0.1 -1.71,-0.156 -2.59,-0.156 -0.24,0 -0.49,-0.01 -0.72,0 -0.12,0 -0.23,-0.01 -0.35,0 0,0 -0.1,0 -0.1,0 z m 0.81,15.1909992 c 0.12,0 0.23,0 0.35,0 3.7,0 6.70999999,3.02 6.70999999,6.71 0,3.7 -3.00999999,6.69 -6.70999999,6.69 -3.6999999,0 -6.6899999,-2.99 -6.6899999,-6.69 0,-3.58 2.8,-6.53 6.3399999,-6.71 z" style="color:#000000;display:inline;overflow:visible;visibility:visible;opacity:1;fill:#000000;fill-opacity:1;fill-rule:nonzero;stroke:none;stroke-width:1;stroke-linecap:butt;stroke-linejoin:miter;stroke-miterlimit:4;stroke-dasharray:none;stroke-dashoffset:0;stroke-opacity:1;marker:none;marker-start:none;marker-mid:none;marker-end:none" inkscape:connector-curvature="0"/>
                </g>
              </g>
            </g>
          </g>
        </g>
      </g>
    </g>
  </g>
</svg>